<svg xmlns="http://www.w3.org/2000/svg" viewBox="0 0 1347.36 254.22"><defs><style>.cls-1{font-size:205.06px;fill:#212529;font-family:AirbnbCerealApp-Medium, Airbnb Cereal App;font-weight:500;}.cls-2{letter-spacing:-0.05em;}.cls-3,.cls-4{font-family:AirbnbCerealApp-Black, Airbnb Cereal App;font-weight:800;}.cls-3{letter-spacing:-0.02em;}.cls-5{fill:#ff514e;}</style></defs><g id="Layer_2" data-name="Layer 2"><g id="work"><g id="logo"><text class="cls-1" transform="translate(330.49 184.94)"><tspan class="cls-2">Y</tspan><tspan x="122.83" y="0">OUR</tspan><tspan class="cls-3" x="562.47" y="0">J</tspan><tspan class="cls-4" x="675.66" y="0">AM</tspan></text><path id="icon" class="cls-5" d="M0,16.75V237.47a16.75,16.75,0,0,0,16.75,16.75H237.47a16.75,16.75,0,0,0,16.75-16.75V16.75A16.75,16.75,0,0,0,237.47,0H16.75A16.75,16.75,0,0,0,0,16.75ZM113.9,50.56A37.81,37.81,0,0,1,128,25.84,37.84,37.84,0,0,1,142,50a38,38,0,0,1,23-.39,37.82,37.82,0,0,1-37,35.66h-.87A37.82,37.82,0,0,1,89.24,49.57,37.85,37.85,0,0,1,113.9,50.56Zm79.55,85-44.6,77.26c-12,20.71-31.52,20.71-43.48,0l-44.6-77.26c-12-20.7-2.18-37.65,21.73-37.65h89.22C195.63,97.94,205.41,114.89,193.45,135.59Z"/></g></g></g></svg>